%TF.GenerationSoftware,KiCad,Pcbnew,(6.0.0)*%
%TF.CreationDate,2022-01-24T18:05:25-05:00*%
%TF.ProjectId,gpib breakout,67706962-2062-4726-9561-6b6f75742e6b,rev?*%
%TF.SameCoordinates,Original*%
%TF.FileFunction,Legend,Bot*%
%TF.FilePolarity,Positive*%
%FSLAX46Y46*%
G04 Gerber Fmt 4.6, Leading zero omitted, Abs format (unit mm)*
G04 Created by KiCad (PCBNEW (6.0.0)) date 2022-01-24 18:05:25*
%MOMM*%
%LPD*%
G01*
G04 APERTURE LIST*
%ADD10C,0.150000*%
%ADD11C,0.120000*%
G04 APERTURE END LIST*
D10*
X225242380Y-86138571D02*
X224766190Y-85805238D01*
X225242380Y-85567142D02*
X224242380Y-85567142D01*
X224242380Y-85948095D01*
X224290000Y-86043333D01*
X224337619Y-86090952D01*
X224432857Y-86138571D01*
X224575714Y-86138571D01*
X224670952Y-86090952D01*
X224718571Y-86043333D01*
X224766190Y-85948095D01*
X224766190Y-85567142D01*
X225242380Y-86995714D02*
X224718571Y-86995714D01*
X224623333Y-86948095D01*
X224575714Y-86852857D01*
X224575714Y-86662380D01*
X224623333Y-86567142D01*
X225194761Y-86995714D02*
X225242380Y-86900476D01*
X225242380Y-86662380D01*
X225194761Y-86567142D01*
X225099523Y-86519523D01*
X225004285Y-86519523D01*
X224909047Y-86567142D01*
X224861428Y-86662380D01*
X224861428Y-86900476D01*
X224813809Y-86995714D01*
X225194761Y-87424285D02*
X225242380Y-87519523D01*
X225242380Y-87710000D01*
X225194761Y-87805238D01*
X225099523Y-87852857D01*
X225051904Y-87852857D01*
X224956666Y-87805238D01*
X224909047Y-87710000D01*
X224909047Y-87567142D01*
X224861428Y-87471904D01*
X224766190Y-87424285D01*
X224718571Y-87424285D01*
X224623333Y-87471904D01*
X224575714Y-87567142D01*
X224575714Y-87710000D01*
X224623333Y-87805238D01*
X224575714Y-88281428D02*
X225575714Y-88281428D01*
X224623333Y-88281428D02*
X224575714Y-88376666D01*
X224575714Y-88567142D01*
X224623333Y-88662380D01*
X224670952Y-88710000D01*
X224766190Y-88757619D01*
X225051904Y-88757619D01*
X225147142Y-88710000D01*
X225194761Y-88662380D01*
X225242380Y-88567142D01*
X225242380Y-88376666D01*
X225194761Y-88281428D01*
X225242380Y-89186190D02*
X224575714Y-89186190D01*
X224242380Y-89186190D02*
X224290000Y-89138571D01*
X224337619Y-89186190D01*
X224290000Y-89233809D01*
X224242380Y-89186190D01*
X224337619Y-89186190D01*
X224290000Y-90948095D02*
X224242380Y-90852857D01*
X224242380Y-90710000D01*
X224290000Y-90567142D01*
X224385238Y-90471904D01*
X224480476Y-90424285D01*
X224670952Y-90376666D01*
X224813809Y-90376666D01*
X225004285Y-90424285D01*
X225099523Y-90471904D01*
X225194761Y-90567142D01*
X225242380Y-90710000D01*
X225242380Y-90805238D01*
X225194761Y-90948095D01*
X225147142Y-90995714D01*
X224813809Y-90995714D01*
X224813809Y-90805238D01*
X225242380Y-91424285D02*
X224242380Y-91424285D01*
X224242380Y-91805238D01*
X224290000Y-91900476D01*
X224337619Y-91948095D01*
X224432857Y-91995714D01*
X224575714Y-91995714D01*
X224670952Y-91948095D01*
X224718571Y-91900476D01*
X224766190Y-91805238D01*
X224766190Y-91424285D01*
X225242380Y-92424285D02*
X224242380Y-92424285D01*
X224718571Y-93233809D02*
X224766190Y-93376666D01*
X224813809Y-93424285D01*
X224909047Y-93471904D01*
X225051904Y-93471904D01*
X225147142Y-93424285D01*
X225194761Y-93376666D01*
X225242380Y-93281428D01*
X225242380Y-92900476D01*
X224242380Y-92900476D01*
X224242380Y-93233809D01*
X224290000Y-93329047D01*
X224337619Y-93376666D01*
X224432857Y-93424285D01*
X224528095Y-93424285D01*
X224623333Y-93376666D01*
X224670952Y-93329047D01*
X224718571Y-93233809D01*
X224718571Y-92900476D01*
X225242380Y-95090952D02*
X224718571Y-95090952D01*
X224623333Y-95043333D01*
X224575714Y-94948095D01*
X224575714Y-94757619D01*
X224623333Y-94662380D01*
X225194761Y-95090952D02*
X225242380Y-94995714D01*
X225242380Y-94757619D01*
X225194761Y-94662380D01*
X225099523Y-94614761D01*
X225004285Y-94614761D01*
X224909047Y-94662380D01*
X224861428Y-94757619D01*
X224861428Y-94995714D01*
X224813809Y-95090952D01*
X225242380Y-95995714D02*
X224242380Y-95995714D01*
X225194761Y-95995714D02*
X225242380Y-95900476D01*
X225242380Y-95710000D01*
X225194761Y-95614761D01*
X225147142Y-95567142D01*
X225051904Y-95519523D01*
X224766190Y-95519523D01*
X224670952Y-95567142D01*
X224623333Y-95614761D01*
X224575714Y-95710000D01*
X224575714Y-95900476D01*
X224623333Y-95995714D01*
X225242380Y-96900476D02*
X224718571Y-96900476D01*
X224623333Y-96852857D01*
X224575714Y-96757619D01*
X224575714Y-96567142D01*
X224623333Y-96471904D01*
X225194761Y-96900476D02*
X225242380Y-96805238D01*
X225242380Y-96567142D01*
X225194761Y-96471904D01*
X225099523Y-96424285D01*
X225004285Y-96424285D01*
X224909047Y-96471904D01*
X224861428Y-96567142D01*
X224861428Y-96805238D01*
X224813809Y-96900476D01*
X224575714Y-97376666D02*
X225575714Y-97376666D01*
X224623333Y-97376666D02*
X224575714Y-97471904D01*
X224575714Y-97662380D01*
X224623333Y-97757619D01*
X224670952Y-97805238D01*
X224766190Y-97852857D01*
X225051904Y-97852857D01*
X225147142Y-97805238D01*
X225194761Y-97757619D01*
X225242380Y-97662380D01*
X225242380Y-97471904D01*
X225194761Y-97376666D01*
X224575714Y-98138571D02*
X224575714Y-98519523D01*
X224242380Y-98281428D02*
X225099523Y-98281428D01*
X225194761Y-98329047D01*
X225242380Y-98424285D01*
X225242380Y-98519523D01*
X225194761Y-99233809D02*
X225242380Y-99138571D01*
X225242380Y-98948095D01*
X225194761Y-98852857D01*
X225099523Y-98805238D01*
X224718571Y-98805238D01*
X224623333Y-98852857D01*
X224575714Y-98948095D01*
X224575714Y-99138571D01*
X224623333Y-99233809D01*
X224718571Y-99281428D01*
X224813809Y-99281428D01*
X224909047Y-98805238D01*
X225242380Y-99710000D02*
X224575714Y-99710000D01*
X224766190Y-99710000D02*
X224670952Y-99757619D01*
X224623333Y-99805238D01*
X224575714Y-99900476D01*
X224575714Y-99995714D01*
X222702380Y-83852857D02*
X222178571Y-83852857D01*
X222083333Y-83805238D01*
X222035714Y-83710000D01*
X222035714Y-83519523D01*
X222083333Y-83424285D01*
X222654761Y-83852857D02*
X222702380Y-83757619D01*
X222702380Y-83519523D01*
X222654761Y-83424285D01*
X222559523Y-83376666D01*
X222464285Y-83376666D01*
X222369047Y-83424285D01*
X222321428Y-83519523D01*
X222321428Y-83757619D01*
X222273809Y-83852857D01*
X222702380Y-84329047D02*
X221702380Y-84329047D01*
X222083333Y-84329047D02*
X222035714Y-84424285D01*
X222035714Y-84614761D01*
X222083333Y-84710000D01*
X222130952Y-84757619D01*
X222226190Y-84805238D01*
X222511904Y-84805238D01*
X222607142Y-84757619D01*
X222654761Y-84710000D01*
X222702380Y-84614761D01*
X222702380Y-84424285D01*
X222654761Y-84329047D01*
X222035714Y-85138571D02*
X222035714Y-85662380D01*
X222702380Y-85138571D01*
X222702380Y-85662380D01*
X222702380Y-86043333D02*
X222035714Y-86043333D01*
X222130952Y-86043333D02*
X222083333Y-86090952D01*
X222035714Y-86186190D01*
X222035714Y-86329047D01*
X222083333Y-86424285D01*
X222178571Y-86471904D01*
X222702380Y-86471904D01*
X222178571Y-86471904D02*
X222083333Y-86519523D01*
X222035714Y-86614761D01*
X222035714Y-86757619D01*
X222083333Y-86852857D01*
X222178571Y-86900476D01*
X222702380Y-86900476D01*
X222702380Y-87805238D02*
X222178571Y-87805238D01*
X222083333Y-87757619D01*
X222035714Y-87662380D01*
X222035714Y-87471904D01*
X222083333Y-87376666D01*
X222654761Y-87805238D02*
X222702380Y-87710000D01*
X222702380Y-87471904D01*
X222654761Y-87376666D01*
X222559523Y-87329047D01*
X222464285Y-87329047D01*
X222369047Y-87376666D01*
X222321428Y-87471904D01*
X222321428Y-87710000D01*
X222273809Y-87805238D01*
X222035714Y-88281428D02*
X222702380Y-88281428D01*
X222130952Y-88281428D02*
X222083333Y-88329047D01*
X222035714Y-88424285D01*
X222035714Y-88567142D01*
X222083333Y-88662380D01*
X222178571Y-88710000D01*
X222702380Y-88710000D01*
X221797619Y-89138571D02*
X221750000Y-89186190D01*
X221702380Y-89281428D01*
X221702380Y-89519523D01*
X221750000Y-89614761D01*
X221797619Y-89662380D01*
X221892857Y-89710000D01*
X221988095Y-89710000D01*
X222130952Y-89662380D01*
X222702380Y-89090952D01*
X222702380Y-89710000D01*
X222702380Y-90138571D02*
X221702380Y-90138571D01*
X222321428Y-90233809D02*
X222702380Y-90519523D01*
X222035714Y-90519523D02*
X222416666Y-90138571D01*
X222607142Y-90948095D02*
X222654761Y-90995714D01*
X222702380Y-90948095D01*
X222654761Y-90900476D01*
X222607142Y-90948095D01*
X222702380Y-90948095D01*
X222035714Y-91329047D02*
X222702380Y-91519523D01*
X222226190Y-91710000D01*
X222702380Y-91900476D01*
X222035714Y-92090952D01*
X222702380Y-92614761D02*
X222654761Y-92519523D01*
X222607142Y-92471904D01*
X222511904Y-92424285D01*
X222226190Y-92424285D01*
X222130952Y-92471904D01*
X222083333Y-92519523D01*
X222035714Y-92614761D01*
X222035714Y-92757619D01*
X222083333Y-92852857D01*
X222130952Y-92900476D01*
X222226190Y-92948095D01*
X222511904Y-92948095D01*
X222607142Y-92900476D01*
X222654761Y-92852857D01*
X222702380Y-92757619D01*
X222702380Y-92614761D01*
X222702380Y-93376666D02*
X222035714Y-93376666D01*
X222226190Y-93376666D02*
X222130952Y-93424285D01*
X222083333Y-93471904D01*
X222035714Y-93567142D01*
X222035714Y-93662380D01*
X222702380Y-94424285D02*
X221702380Y-94424285D01*
X222654761Y-94424285D02*
X222702380Y-94329047D01*
X222702380Y-94138571D01*
X222654761Y-94043333D01*
X222607142Y-93995714D01*
X222511904Y-93948095D01*
X222226190Y-93948095D01*
X222130952Y-93995714D01*
X222083333Y-94043333D01*
X222035714Y-94138571D01*
X222035714Y-94329047D01*
X222083333Y-94424285D01*
X222035714Y-94900476D02*
X223035714Y-94900476D01*
X222083333Y-94900476D02*
X222035714Y-94995714D01*
X222035714Y-95186190D01*
X222083333Y-95281428D01*
X222130952Y-95329047D01*
X222226190Y-95376666D01*
X222511904Y-95376666D01*
X222607142Y-95329047D01*
X222654761Y-95281428D01*
X222702380Y-95186190D01*
X222702380Y-94995714D01*
X222654761Y-94900476D01*
X222702380Y-95805238D02*
X222035714Y-95805238D01*
X222226190Y-95805238D02*
X222130952Y-95852857D01*
X222083333Y-95900476D01*
X222035714Y-95995714D01*
X222035714Y-96090952D01*
X222654761Y-96805238D02*
X222702380Y-96710000D01*
X222702380Y-96519523D01*
X222654761Y-96424285D01*
X222559523Y-96376666D01*
X222178571Y-96376666D01*
X222083333Y-96424285D01*
X222035714Y-96519523D01*
X222035714Y-96710000D01*
X222083333Y-96805238D01*
X222178571Y-96852857D01*
X222273809Y-96852857D01*
X222369047Y-96376666D01*
X222654761Y-97233809D02*
X222702380Y-97329047D01*
X222702380Y-97519523D01*
X222654761Y-97614761D01*
X222559523Y-97662380D01*
X222511904Y-97662380D01*
X222416666Y-97614761D01*
X222369047Y-97519523D01*
X222369047Y-97376666D01*
X222321428Y-97281428D01*
X222226190Y-97233809D01*
X222178571Y-97233809D01*
X222083333Y-97281428D01*
X222035714Y-97376666D01*
X222035714Y-97519523D01*
X222083333Y-97614761D01*
X222654761Y-98043333D02*
X222702380Y-98138571D01*
X222702380Y-98329047D01*
X222654761Y-98424285D01*
X222559523Y-98471904D01*
X222511904Y-98471904D01*
X222416666Y-98424285D01*
X222369047Y-98329047D01*
X222369047Y-98186190D01*
X222321428Y-98090952D01*
X222226190Y-98043333D01*
X222178571Y-98043333D01*
X222083333Y-98090952D01*
X222035714Y-98186190D01*
X222035714Y-98329047D01*
X222083333Y-98424285D01*
X222607142Y-98900476D02*
X222654761Y-98948095D01*
X222702380Y-98900476D01*
X222654761Y-98852857D01*
X222607142Y-98900476D01*
X222702380Y-98900476D01*
X222654761Y-99805238D02*
X222702380Y-99710000D01*
X222702380Y-99519523D01*
X222654761Y-99424285D01*
X222607142Y-99376666D01*
X222511904Y-99329047D01*
X222226190Y-99329047D01*
X222130952Y-99376666D01*
X222083333Y-99424285D01*
X222035714Y-99519523D01*
X222035714Y-99710000D01*
X222083333Y-99805238D01*
X222702380Y-100376666D02*
X222654761Y-100281428D01*
X222607142Y-100233809D01*
X222511904Y-100186190D01*
X222226190Y-100186190D01*
X222130952Y-100233809D01*
X222083333Y-100281428D01*
X222035714Y-100376666D01*
X222035714Y-100519523D01*
X222083333Y-100614761D01*
X222130952Y-100662380D01*
X222226190Y-100710000D01*
X222511904Y-100710000D01*
X222607142Y-100662380D01*
X222654761Y-100614761D01*
X222702380Y-100519523D01*
X222702380Y-100376666D01*
X222702380Y-101138571D02*
X222035714Y-101138571D01*
X222130952Y-101138571D02*
X222083333Y-101186190D01*
X222035714Y-101281428D01*
X222035714Y-101424285D01*
X222083333Y-101519523D01*
X222178571Y-101567142D01*
X222702380Y-101567142D01*
X222178571Y-101567142D02*
X222083333Y-101614761D01*
X222035714Y-101710000D01*
X222035714Y-101852857D01*
X222083333Y-101948095D01*
X222178571Y-101995714D01*
X222702380Y-101995714D01*
%TO.C,J3*%
X199718333Y-121157380D02*
X199718333Y-121871666D01*
X199765952Y-122014523D01*
X199861190Y-122109761D01*
X200004047Y-122157380D01*
X200099285Y-122157380D01*
X199337380Y-121157380D02*
X198718333Y-121157380D01*
X199051666Y-121538333D01*
X198908809Y-121538333D01*
X198813571Y-121585952D01*
X198765952Y-121633571D01*
X198718333Y-121728809D01*
X198718333Y-121966904D01*
X198765952Y-122062142D01*
X198813571Y-122109761D01*
X198908809Y-122157380D01*
X199194523Y-122157380D01*
X199289761Y-122109761D01*
X199337380Y-122062142D01*
D11*
X196785000Y-118105000D02*
X196785000Y-69785000D01*
X196785000Y-120705000D02*
X198115000Y-120705000D01*
X196785000Y-119375000D02*
X196785000Y-120705000D01*
X201985000Y-120705000D02*
X201985000Y-69785000D01*
X199385000Y-118105000D02*
X199385000Y-120705000D01*
X199385000Y-120705000D02*
X201985000Y-120705000D01*
X196785000Y-69785000D02*
X201985000Y-69785000D01*
X196785000Y-118105000D02*
X199385000Y-118105000D01*
%TD*%
M02*
